<?xml version="1.0" encoding="UTF-8" standalone="no"?> <svg width="64" height="64" viewBox="0 0 64 64" fill="none" xmlns="http://www.w3.org/2000/svg">
<path d="M44.3002 44C44.698 44 45.0796 43.842 45.3609 43.5607C45.6422 43.2794 45.8002 42.8978 45.8002 42.5C45.8002 42.1022 45.6422 41.7206 45.3609 41.4393C45.0796 41.158 44.698 41 44.3002 41H19.7002C19.3024 41 18.9208 41.158 18.6395 41.4393C18.3582 41.7206 18.2002 42.1022 18.2002 42.5C18.2002 42.8978 18.3582 43.2794 18.6395 43.5607C18.9208 43.842 19.3024 44 19.7002 44H44.3002Z" fill="#8b9aad"/>
<path d="M52.5103 30.4199H11.5103C11.1124 30.4199 10.7309 30.578 10.4496 30.8593C10.1683 31.1406 10.0103 31.5221 10.0103 31.9199C10.0103 32.3177 10.1683 32.6993 10.4496 32.9806C10.7309 33.2619 11.1124 33.4199 11.5103 33.4199H52.5103C52.9081 33.4199 53.2896 33.2619 53.5709 32.9806C53.8522 32.6993 54.0103 32.3177 54.0103 31.9199C54.0103 31.5221 53.8522 31.1406 53.5709 30.8593C53.2896 30.578 52.9081 30.4199 52.5103 30.4199V30.4199Z" fill="#8b9aad"/>
<path d="M11.4902 12.5H52.4902C52.8881 12.5 53.2696 12.342 53.5509 12.0607C53.8322 11.7794 53.9902 11.3978 53.9902 11C53.9902 10.6022 53.8322 10.2206 53.5509 9.93934C53.2696 9.65804 52.8881 9.5 52.4902 9.5H11.4902C11.0924 9.5 10.7109 9.65804 10.4296 9.93934C10.1483 10.2206 9.99023 10.6022 9.99023 11C9.99023 11.3978 10.1483 11.7794 10.4296 12.0607C10.7109 12.342 11.0924 12.5 11.4902 12.5V12.5Z" fill="#8b9aad"/>
<path d="M19.7002 19.8799C19.3024 19.8799 18.9208 20.0379 18.6395 20.3192C18.3582 20.6005 18.2002 20.9821 18.2002 21.3799C18.2002 21.7777 18.3582 22.1592 18.6395 22.4405C18.9208 22.7218 19.3024 22.8799 19.7002 22.8799H44.3002C44.698 22.8799 45.0796 22.7218 45.3609 22.4405C45.6422 22.1592 45.8002 21.7777 45.8002 21.3799C45.8002 20.9821 45.6422 20.6005 45.3609 20.3192C45.0796 20.0379 44.698 19.8799 44.3002 19.8799H19.7002Z" fill="#8b9aad"/>
</svg>
